<svg width="600" height="220" viewBox="0 0 600 220" fill="none" xmlns="http://www.w3.org/2000/svg">
<rect width="600" height="220" fill="white"/>
<path d="M98.744 117.288L99.992 114.504C105.688 114.568 110.328 115.432 113.912 117.096C117.56 118.76 120.216 121 121.88 123.816C123.608 126.632 124.472 129.8 124.472 133.32C124.472 137.16 123.544 140.552 121.688 143.496C119.896 146.44 117.24 148.776 113.72 150.504C110.2 152.168 105.816 153 100.568 153H52.568L58.232 116.04L52.568 81H98.84C105.496 81 110.616 82.568 114.2 85.704C117.848 88.776 119.672 93.032 119.672 98.472C119.672 101.352 118.968 104.168 117.56 106.92C116.216 109.608 114.008 111.912 110.936 113.832C107.928 115.688 103.864 116.84 98.744 117.288ZM65.336 149.448L60.44 142.824H99.128C103.096 142.824 106.168 141.928 108.344 140.136C110.584 138.28 111.704 135.656 111.704 132.264C111.704 128.68 110.392 125.896 107.768 123.912C105.208 121.928 101.4 120.936 96.344 120.936H65.144V111.144H95.096C98.488 111.144 101.304 110.216 103.544 108.36C105.784 106.44 106.904 103.72 106.904 100.2C106.904 97.576 105.976 95.432 104.12 93.768C102.264 92.04 99.576 91.176 96.056 91.176H60.44L65.336 84.552L70.424 116.04L65.336 149.448ZM136.345 81H149.017V153H136.345V81ZM188.359 86.856H201.031V153H188.359V86.856ZM158.599 81H230.791V92.136H158.599V81ZM337.272 81V153H325.176V84.84L329.112 85.032L295.608 153H282.072L248.568 85.128L252.504 84.936V153H240.408V81H259.8L292.056 147.528H285.72L317.88 81H337.272ZM362.977 136.488V126.024H413.281V136.488H362.977ZM396.385 81L430.945 153H417.409L386.017 85.8H390.913L359.521 153H345.985L380.545 81H396.385ZM439.72 81H452.392V153H439.72V81ZM535.222 145.32L530.038 145.896V81H542.326V153H526.198L475.702 88.104L480.79 87.528V153H468.502V81H485.014L535.222 145.32Z" fill="black"/>
</svg>
