<svg width="290" height="290" viewBox="0 0 290 290" fill="none" xmlns="http://www.w3.org/2000/svg">
<path d="M26.5 63.9692C22 66.563 22 72.5733 22 86.5L23.5 210C23.5 217.506 23.5 221.385 26.5 223.386M26.5 63.9692C29.9164 62 35.9267 62 46.5 62H243C252.61 61.9999 258.45 62.6923 262 64.7408M26.5 63.9692L106.415 143.5M262 64.7408C267.5 67.9148 267.5 74.3448 267.5 86.5V210C267.5 217.266 266.586 221.515 264.143 224M262 64.7408L182.635 143.5M182.635 143.5L165 161C149.8 176.2 140 177 124 161L106.415 143.5M182.635 143.5L264.143 224M264.143 224C260.703 227.5 254.228 227.5 243 227.5L46.5 225.5C35.1643 225.5 29.4155 225.33 26.5 223.386M106.415 143.5L26.5 223.386" stroke="#FF741F" stroke-width="16"/>
</svg>
