<svg width="290" height="290" viewBox="0 0 290 290" fill="none" xmlns="http://www.w3.org/2000/svg">
<path d="M90.0575 17H33.0575C25.0578 17 19.0571 23.5 18.0575 32C8.05713 96 67.5575 272 257.557 272C267.157 272 272.557 266 272.557 257V200C272.557 192.8 266.057 185 257.557 185C239.957 185 220.057 182.571 207.057 177C201.457 174.6 194.057 175 189.057 180L157.557 203C136.557 194 106.558 169.5 86.5575 132L112.058 98C115.257 95.6 115.058 85.5 112.058 82.5C108.858 78.1 104.558 53.5 104.558 32C104.558 25 98.0575 17 90.0575 17Z" fill="#FF741F"/>
</svg>
